<?xml version="1.0" standalone="no"?>
<svg xmlns="http://www.w3.org/2000/svg" width="32" height="32"><rect width="32" height="32" opacity="0"></rect><g><path d="M16.03 12Q17.12 12 18.03 12.54Q18.94 13.09 19.47 14.02Q20 14.94 20 16.03Q20 17.12 19.47 18.03Q18.94 18.94 18.03 19.47Q17.12 20 16 20Q14.91 20 13.98 19.46Q13.06 18.91 12.53 17.98Q12 17.06 12 15.97Q12 14.88 12.54 13.97Q13.09 13.06 14.02 12.53Q14.94 12 16.03 12ZM16.06 10.02Q14.43 10.02 13.04 10.82Q11.65 11.62 10.83 12.98Q10.02 14.34 10.02 15.97Q10.02 17.6 10.82 18.99Q11.62 20.38 12.99 21.2Q14.37 22.02 16 22.02Q17.63 22.02 19.01 21.22Q20.38 20.42 21.2 19.04Q22.02 17.66 22.02 16.03Q22.02 14.4 21.22 13.02Q20.42 11.65 19.06 10.83Q17.7 10.02 16.06 10.02ZM18.08 30.21Q18.69 30.21 19.2 29.87Q19.71 29.54 19.97 28.99L21.06 26.46L21.31 26.34Q21.89 25.98 22.46 25.63L25.22 25.98Q25.86 26.05 26.4 25.78Q26.94 25.5 27.26 24.96L29.38 21.31Q29.7 20.77 29.65 20.16Q29.6 19.55 29.25 19.04L27.58 16.8L27.58 15.23L29.25 12.99Q29.63 12.48 29.66 11.87Q29.7 11.26 29.38 10.72L27.26 7.04Q26.98 6.53 26.43 6.24Q25.89 5.95 25.25 6.02L22.46 6.37Q21.89 5.95 21.15 5.6L20.03 2.98Q19.78 2.43 19.26 2.08Q18.75 1.73 18.14 1.73L13.92 1.73Q13.31 1.73 12.78 2.08Q12.26 2.43 12 2.98L10.88 5.6L10.56 5.79Q10.3 5.92 10.06 6.05Q9.82 6.18 9.6 6.34L6.78 6.02Q6.18 5.92 5.62 6.19Q5.06 6.46 4.74 7.01L2.62 10.69Q2.3 11.2 2.35 11.82Q2.4 12.45 2.75 12.96L4.45 15.23L4.45 16.7L2.75 18.98Q2.37 19.49 2.34 20.1Q2.3 20.7 2.62 21.25L4.7 24.9Q5.02 25.44 5.57 25.71Q6.11 25.98 6.75 25.92L9.5 25.6Q10.4 26.18 10.85 26.4L11.97 28.96Q12.19 29.54 12.7 29.87Q13.22 30.21 13.86 30.21L18.08 30.21ZM9.44 23.55L6.4 23.87L4.29 20.13L6.11 17.7Q6.4 17.25 6.4 16.8Q6.37 16.42 6.37 15.94Q6.37 15.46 6.4 15.07Q6.4 14.56 6.11 14.14L4.29 11.65L6.46 7.94L9.54 8.32Q9.82 8.35 10.06 8.29Q10.3 8.22 10.5 8.1Q11.07 7.68 11.9 7.3Q12.38 7.04 12.58 6.59L13.86 3.71L18.14 3.74L19.36 6.59Q19.52 7.01 20.03 7.3Q20.74 7.62 21.47 8.13Q21.95 8.45 22.43 8.35L25.5 8.03L27.62 11.78L25.82 14.18Q25.47 14.56 25.54 15.1Q25.57 15.52 25.57 16.02Q25.57 16.51 25.54 16.9Q25.5 17.41 25.82 17.82L27.62 20.26L25.44 23.97L22.46 23.62Q22.21 23.58 21.95 23.63Q21.7 23.68 21.5 23.84Q20.8 24.35 20 24.7Q19.78 24.83 19.58 25.01Q19.39 25.18 19.3 25.41L18.08 28.19L13.79 28.16L12.61 25.38Q12.38 24.9 11.94 24.67Q11.3 24.38 10.46 23.84Q10.11 23.58 9.66 23.58Z" fill="rgba(0,0,0,0.9019607843137255)"></path></g></svg>